<svg width="144" height="144" viewBox="0 0 144 144" xmlns="http://www.w3.org/2000/svg">
  <!-- Base/Stand -->
  <rect x="60" y="115" width="24" height="12" rx="2" fill="#2a2a2a"/>
  <rect x="58" y="125" width="28" height="8" rx="3" fill="#1a1a1a"/>
  <rect x="64" y="120" width="16" height="4" fill="#333"/>
  
  <!-- Main LED panel body -->
  <rect x="32" y="25" width="80" height="80" rx="18" ry="18" fill="#f5f5f5" stroke="#e0e0e0" stroke-width="2"/>
  
  <!-- Inner LED area (off) -->
  <rect x="38" y="31" width="68" height="68" rx="12" ry="12" fill="#e8e8e8" stroke="#d0d0d0" stroke-width="1"/>
  
  <!-- LED grid pattern (off) -->
  <g fill="#d5d5d5" opacity="0.6">
    <!-- Horizontal lines -->
    <rect x="42" y="40" width="60" height="1"/>
    <rect x="42" y="50" width="60" height="1"/>
    <rect x="42" y="60" width="60" height="1"/>
    <rect x="42" y="70" width="60" height="1"/>
    <rect x="42" y="80" width="60" height="1"/>
    <rect x="42" y="90" width="60" height="1"/>
    
    <!-- Vertical lines -->
    <rect x="50" y="35" width="1" height="60"/>
    <rect x="60" y="35" width="1" height="60"/>
    <rect x="70" y="35" width="1" height="60"/>
    <rect x="80" y="35" width="1" height="60"/>
    <rect x="90" y="35" width="1" height="60"/>
  </g>
  
  <!-- Brand logo area -->
  <circle cx="72" cy="65" r="8" fill="#ddd" opacity="0.5"/>
  <text x="72" y="69" text-anchor="middle" font-family="Arial, sans-serif" font-size="6" fill="#999">logi</text>
  
  <!-- Power indicator (off) -->
  <circle cx="95" cy="40" r="2" fill="#666"/>
  
  <!-- Connection point -->
  <rect x="70" y="105" width="4" height="10" fill="#333"/>
</svg>