<?xml version="1.0"?>
<svg width="144" height="144" xmlns="http://www.w3.org/2000/svg" xmlns:svg="http://www.w3.org/2000/svg">
 <!-- Base/Stand -->
 <!-- Main LED panel body -->
 <!-- Inner LED area (off) -->
 <!-- LED grid pattern (off) -->
 <!-- Brand logo area -->
 <!-- Power indicator (off) -->
 <!-- Connection point -->
 <g class="layer">
  <title>Layer 1</title>
  <rect fill="#ffffff" height="12" id="svg_1" rx="2" transform="matrix(1.2537 0 0 1.24937 -18.2723 -26.7009)" width="24" x="60" y="117.07"/>
  <rect fill="#ffffff" height="8" id="svg_2" rx="3" transform="matrix(1.2537 0 0 1.24937 -18.2723 -26.7009)" width="28" x="58" y="127.07"/>
  <rect fill="#ffffff" height="4" id="svg_3" transform="matrix(1.2537 0 0 1.24937 -18.2723 -26.7009)" width="16" x="64" y="122.07"/>
  <rect fill="#ff0000" fill-opacity="0.01" height="80" id="svg_4" rx="18" ry="18" stroke="#ffffff" stroke-width="8" transform="matrix(1.2537 0 0 1.24937 -18.2723 -26.7009)" width="80" x="32" y="27.07"/>
  <rect fill="#ffffff" height="10" id="svg_21" transform="matrix(1.2537 0 0 1.24937 -18.2723 -26.7009)" width="4" x="70" y="107.07"/>
  <text fill="#ffffff" font-family="Arial, sans-serif" font-size="37.61" id="svg_22" stroke="#ffffff" text-anchor="middle" transform="matrix(1.2537 0 0 1.24937 -18.2723 -26.7009)" x="74.05" xml:space="preserve" y="78.33"/>
  <g id="svg_23" transform="translate(0 0.16129) translate(0 0.16129) translate(0 0.16129) translate(0 0.16129) translate(0 0.16129) translate(0 0.16129) translate(0 -0.16129) translate(0 -0.16129) translate(0 -0.16129) translate(0 -0.16129) translate(0 -0.16129) translate(0 -0.16129) translate(0 -0.16129) translate(0 -0.16129) translate(0 -0.16129) translate(0 -0.16129) translate(0 -0.16129) translate(0 -0.16129) translate(0 -0.16129) translate(0 -0.16129) translate(0 -0.16129) translate(0 -0.16129) translate(0 -0.16129) translate(-4.84 0) matrix(3.21485 0 0 3.21485 38.2605 20.5185)">
   <path d="m12,0c-0.55,0 -1,0.45 -1,1l0,2c0,0.55 0.45,1 1,1c0.55,0 1,-0.45 1,-1l0,-2c0,-0.55 -0.45,-1 -1,-1z" fill="#ffffff" id="svg_24"/>
   <path clip-rule="evenodd" d="m12,18c3.31,0 6,-2.69 6,-6c0,-3.31 -2.69,-6 -6,-6c-3.31,0 -6,2.69 -6,6c0,3.31 2.69,6 6,6zm-2.78,-3.22c-0.72,-0.71 -1.16,-1.69 -1.16,-2.78c0,-2.18 1.76,-3.94 3.94,-3.94c1.09,0 2.07,0.44 2.78,1.16l-5.56,5.56z" fill="#ffffff" fill-rule="evenodd" id="svg_25"/>
   <path d="m19.07,3.51c0.39,-0.39 1.02,-0.39 1.42,0c0.39,0.4 0.39,1.03 0,1.42l-1.42,1.41c-0.39,0.39 -1.02,0.39 -1.41,0c-0.39,-0.39 -0.39,-1.02 0,-1.41l1.41,-1.42z" fill="#ffffff" id="svg_26"/>
   <path d="m0,12c0,0.55 0.45,1 1,1l2,0c0.55,0 1,-0.45 1,-1c0,-0.55 -0.45,-1 -1,-1l-2,0c-0.55,0 -1,0.45 -1,1z" fill="#ffffff" id="svg_27"/>
   <path d="m3.51,4.93c-0.39,-0.39 -0.39,-1.02 0,-1.42c0.4,-0.39 1.03,-0.39 1.42,0l1.41,1.42c0.39,0.39 0.39,1.02 0,1.41c-0.39,0.39 -1.02,0.39 -1.41,0l-1.42,-1.41z" fill="#ffffff" id="svg_28"/>
   <path d="m12,20c-0.55,0 -1,0.45 -1,1l0,2c0,0.55 0.45,1 1,1c0.55,0 1,-0.45 1,-1l0,-2c0,-0.55 -0.45,-1 -1,-1z" fill="#ffffff" id="svg_29"/>
   <path d="m4.93,17.66c0.39,-0.39 1.02,-0.39 1.41,0c0.39,0.39 0.39,1.02 0,1.41l-1.41,1.42c-0.39,0.39 -1.02,0.39 -1.42,0c-0.39,-0.4 -0.39,-1.03 0,-1.42l1.42,-1.41z" fill="#ffffff" id="svg_30"/>
   <path d="m20,12c0,0.55 0.45,1 1,1l2,0c0.55,0 1,-0.45 1,-1c0,-0.55 -0.45,-1 -1,-1l-2,0c-0.55,0 -1,0.45 -1,1z" fill="#ffffff" id="svg_31"/>
   <path d="m17.66,19.07c-0.39,-0.39 -0.39,-1.02 0,-1.41c0.39,-0.39 1.02,-0.39 1.41,0l1.42,1.41c0.39,0.39 0.39,1.02 0,1.42c-0.4,0.39 -1.03,0.39 -1.42,0l-1.41,-1.42z" fill="#ffffff" id="svg_32"/>
  </g>
 </g>
</svg>