<?xml version="1.0"?>
<svg width="144" height="144" xmlns="http://www.w3.org/2000/svg" xmlns:svg="http://www.w3.org/2000/svg">
 <!-- Base/Stand -->
 <defs>
  <symbol height="800px" id="svg_23" viewBox="0 0 24 24" width="800px" xmlns="http://www.w3.org/2000/svg">
   <g id="svg_22" stroke-width="0"/>
   <g id="svg_21" stroke-linecap="round" stroke-linejoin="round"/>
   <g id="svg_20">
    <path d="m12,0c-0.55,0 -1,0.45 -1,1l0,2c0,0.55 0.45,1 1,1c0.55,0 1,-0.45 1,-1l0,-2c0,-0.55 -0.45,-1 -1,-1z" fill="#ffffff"/>
    <path clip-rule="evenodd" d="m12,18c3.31,0 6,-2.69 6,-6c0,-3.31 -2.69,-6 -6,-6c-3.31,0 -6,2.69 -6,6c0,3.31 2.69,6 6,6zm-2.78,-3.22c-0.72,-0.71 -1.16,-1.69 -1.16,-2.78c0,-2.18 1.76,-3.94 3.94,-3.94c1.09,0 2.07,0.44 2.78,1.16l-5.56,5.56z" fill="#ffffff" fill-rule="evenodd"/>
    <path d="m19.07,3.51c0.39,-0.39 1.02,-0.39 1.42,0c0.39,0.4 0.39,1.03 0,1.42l-1.42,1.41c-0.39,0.39 -1.02,0.39 -1.41,0c-0.39,-0.39 -0.39,-1.02 0,-1.41l1.41,-1.42z" fill="#ffffff"/>
    <path d="m0,12c0,0.55 0.45,1 1,1l2,0c0.55,0 1,-0.45 1,-1c0,-0.55 -0.45,-1 -1,-1l-2,0c-0.55,0 -1,0.45 -1,1z" fill="#ffffff"/>
    <path d="m3.51,4.93c-0.39,-0.39 -0.39,-1.02 0,-1.42c0.4,-0.39 1.03,-0.39 1.42,0l1.41,1.42c0.39,0.39 0.39,1.02 0,1.41c-0.39,0.39 -1.02,0.39 -1.41,0l-1.42,-1.41z" fill="#ffffff"/>
    <path d="m12,20c-0.55,0 -1,0.45 -1,1l0,2c0,0.55 0.45,1 1,1c0.55,0 1,-0.45 1,-1l0,-2c0,-0.55 -0.45,-1 -1,-1z" fill="#ffffff"/>
    <path d="m4.93,17.66c0.39,-0.39 1.02,-0.39 1.41,0c0.39,0.39 0.39,1.02 0,1.41l-1.41,1.42c-0.39,0.39 -1.02,0.39 -1.42,0c-0.39,-0.4 -0.39,-1.03 0,-1.42l1.42,-1.41z" fill="#ffffff"/>
    <path d="m20,12c0,0.55 0.45,1 1,1l2,0c0.55,0 1,-0.45 1,-1c0,-0.55 -0.45,-1 -1,-1l-2,0c-0.55,0 -1,0.45 -1,1z" fill="#ffffff"/>
    <path d="m17.66,19.07c-0.39,-0.39 -0.39,-1.02 0,-1.41c0.39,-0.39 1.02,-0.39 1.41,0l1.42,1.41c0.39,0.39 0.39,1.02 0,1.42c-0.4,0.39 -1.03,0.39 -1.42,0l-1.41,-1.42z" fill="#ffffff"/>
   </g>
  </symbol>
 </defs>
 <!-- Main LED panel body -->
 <!-- Inner LED area -->
 <!-- Minus symbol -->
 <!-- Power indicator (off) -->
 <!-- Connection point -->
 <g class="layer">
  <title>Layer 1</title>
  <rect fill="#2a2a2a" height="12" id="svg_1" rx="2" width="24" x="60" y="115"/>
  <rect fill="#1a1a1a" height="8" id="svg_2" rx="3" width="28" x="58" y="125"/>
  <rect fill="#333" height="4" id="svg_3" width="16" x="64" y="120"/>
  <rect fill="#000000" height="80" id="svg_4" rx="18" ry="18" stroke="#ffffff" stroke-width="2" width="80" x="32" y="25"/>
  <rect fill="#1a1a1a" height="68" id="svg_5" rx="12" ry="12" stroke="#333" transform="matrix(1 0 0 1 0 0)" width="68" x="38" y="31"/>
  <circle cx="95" cy="40" fill="#666" id="svg_8" r="2"/>
  <rect fill="#333" height="10" id="svg_9" width="4" x="70" y="105"/>
  <use href="#svg_23" id="svg_24" transform="matrix(0.0597791 0 0 0.0612822 48.0886 40.2565)"/>
 </g>
</svg>