<?xml version="1.0"?>
<svg width="144" height="144" xmlns="http://www.w3.org/2000/svg" xmlns:svg="http://www.w3.org/2000/svg">
 <!-- Base/Stand -->
 <defs>
  <symbol height="800px" id="svg_11" viewBox="0 0 24 24" width="800px" xmlns="http://www.w3.org/2000/svg">
   <g id="svg_10" stroke-width="0"/>
   <g id="svg_7" stroke-linecap="round" stroke-linejoin="round"/>
   <g id="svg_6">
    <path d="m8,16c-0.55,0 -1,0.45 -1,1c0,0.55 0.45,1 1,1c0.55,0 1,-0.45 1,-1c0,-0.55 -0.45,-1 -1,-1zm0,0l0.01,-4m-0.01,5l0.01,0.01m11.99,-12.01c0,1.1 -0.9,2 -2,2c-1.1,0 -2,-0.9 -2,-2c0,-1.1 0.9,-2 2,-2c1.1,0 2,0.9 2,2zm-8,12c0,2.21 -1.79,4 -4,4c-2.21,0 -4,-1.79 -4,-4c0,-1.01 0.38,-1.94 1,-2.65l0,-8.35c0,-1.66 1.34,-3 3,-3c1.66,0 3,1.34 3,3l0,8.35c0.62,0.71 1,1.64 1,2.65z" id="svg_13" stroke="#ffffff" stroke-linecap="round" stroke-linejoin="round" stroke-width="2"/>
   </g>
  </symbol>
  <symbol height="800px" id="svg_31" viewBox="0 0 24 24" width="800px" xmlns="http://www.w3.org/2000/svg">
   <g id="svg_30" stroke-width="0"/>
   <g id="svg_29" stroke-linecap="round" stroke-linejoin="round"/>
   <g id="svg_28">
    <path d="m15,4l5,0m-5,4l5,0m-3,4l3,0m-12,4c-0.55,0 -1,0.45 -1,1c0,0.55 0.45,1 1,1c0.55,0 1,-0.45 1,-1c0,-0.55 -0.45,-1 -1,-1zm0,0l0,-7m0,8l0.01,0.01m3.99,-0.01c0,2.21 -1.79,4 -4,4c-2.21,0 -4,-1.79 -4,-4c0,-1.01 0.38,-1.94 1,-2.65l0,-8.35c0,-1.66 1.34,-3 3,-3c1.66,0 3,1.34 3,3l0,8.35c0.62,0.71 1,1.64 1,2.65z" stroke="#ffffff" stroke-linecap="round" stroke-linejoin="round" stroke-width="2"/>
   </g>
  </symbol>
 </defs>
 <!-- Main LED panel body -->
 <!-- Inner LED area -->
 <!-- Minus symbol -->
 <!-- Power indicator (off) -->
 <!-- Connection point -->
 <g class="layer">
  <title>Layer 1</title>
  <rect fill="#2a2a2a" height="12" id="svg_1" rx="2" width="24" x="60" y="115"/>
  <rect fill="#1a1a1a" height="8" id="svg_2" rx="3" width="28" x="58" y="125"/>
  <rect fill="#333" height="4" id="svg_3" width="16" x="64" y="120"/>
  <rect fill="#000000" height="80" id="svg_4" rx="18" ry="18" stroke="#ffffff" stroke-width="2" width="80" x="32" y="25"/>
  <rect fill="#1a1a1a" height="68" id="svg_5" rx="12" ry="12" stroke="#333" width="68" x="38" y="31"/>
  <circle cx="95" cy="40" fill="#666" id="svg_8" r="2"/>
  <rect fill="#333" height="10" id="svg_9" width="4" x="70" y="105"/>
  <use href="#svg_11" id="svg_12" transform="scale(8 8)"/>
  <use href="#svg_31" id="svg_32" transform="matrix(0.0685948 0 0 0.0685948 44.5644 38.8011)"/>
 </g>
</svg>