<?xml version="1.0"?>
<svg width="144" height="144" xmlns="http://www.w3.org/2000/svg" xmlns:svg="http://www.w3.org/2000/svg">
 <!-- Base/Stand -->
 <!-- Main LED panel body -->
 <!-- Inner LED area (off) -->
 <!-- LED grid pattern (off) -->
 <!-- Brand logo area -->
 <!-- Power indicator (off) -->
 <!-- Connection point -->
 <g class="layer">
  <title>Layer 1</title>
  <rect fill="#ffffff" height="12" id="svg_1" rx="2" transform="matrix(1.2537 0 0 1.24937 -18.2723 -26.7009)" width="24" x="60" y="117.07"/>
  <rect fill="#ffffff" height="8" id="svg_2" rx="3" transform="matrix(1.2537 0 0 1.24937 -18.2723 -26.7009)" width="28" x="58" y="127.07"/>
  <rect fill="#ffffff" height="4" id="svg_3" transform="matrix(1.2537 0 0 1.24937 -18.2723 -26.7009)" width="16" x="64" y="122.07"/>
  <rect fill="#ff0000" fill-opacity="0.01" height="80" id="svg_4" rx="18" ry="18" stroke="#ffffff" stroke-width="8" transform="matrix(1.2537 0 0 1.24937 -18.2723 -26.7009)" width="80" x="32" y="27.07"/>
  <rect fill="#ffffff" height="10" id="svg_21" transform="matrix(1.2537 0 0 1.24937 -18.2723 -26.7009)" width="4" x="70" y="107.07"/>
  <text fill="#ffffff" font-family="Arial, sans-serif" font-size="37.61" id="svg_22" stroke="#ffffff" text-anchor="middle" transform="matrix(1.2537 0 0 1.24937 -18.2723 -26.7009)" x="74.05" xml:space="preserve" y="78.33"/>
  <g fill-opacity="0" id="svg_19" transform="translate(-10.3226 14.8387) matrix(1.09392 0 0 1.09014 1.06431 -20.2511)">
   <path d="m15,4l5,0m-5,4l5,0m-3,4l3,0m-12,4c-0.55,0 -1,0.45 -1,1c0,0.55 0.45,1 1,1c0.55,0 1,-0.45 1,-1c0,-0.55 -0.45,-1 -1,-1zm0,0l0,-7m0,8l0.01,0.01m3.99,-0.01c0,2.21 -1.79,4 -4,4c-2.21,0 -4,-1.79 -4,-4c0,-1.01 0.38,-1.94 1,-2.65l0,-8.35c0,-1.66 1.34,-3 3,-3c1.66,0 3,1.34 3,3l0,8.35c0.62,0.71 1,1.64 1,2.65z" fill="#000000" id="svg_20" stroke="#ffffff" stroke-linecap="round" stroke-linejoin="round" stroke-width="2" transform="translate(6.12903 -0.483871) matrix(3.28753 0 0 3.27617 28.854 20.061)"/>
  </g>
 </g>
</svg>