<?xml version="1.0"?>
<svg width="144" height="144" xmlns="http://www.w3.org/2000/svg" xmlns:svg="http://www.w3.org/2000/svg">
 <!-- Base/Stand -->
 <defs>
  <symbol height="800px" id="svg_46" viewBox="0 0 16 16" width="800px" xmlns="http://www.w3.org/2000/svg">
   <g id="svg_45" stroke-width="0"/>
   <g id="svg_44" stroke-linecap="round" stroke-linejoin="round"/>
   <g id="svg_43">
    <path d="m6.5,0l0,8l3,0l0,-8l-3,0z" fill="#ffffff"/>
    <path d="m4.46,11.54c-1.95,-1.96 -1.95,-5.12 0,-7.08l-2.12,-2.12c-3.12,3.13 -3.12,8.19 0,11.32c3.13,3.12 8.19,3.12 11.32,0c3.12,-3.13 3.12,-8.19 0,-11.32l-2.12,2.12c1.95,1.96 1.95,5.12 0,7.08c-1.96,1.95 -5.12,1.95 -7.08,0z" fill="#ffffff"/>
   </g>
  </symbol>
 </defs>
 <!-- Main LED panel body -->
 <!-- Inner LED area (off) -->
 <!-- LED grid pattern (off) -->
 <!-- Brand logo area -->
 <!-- Power indicator (off) -->
 <!-- Connection point -->
 <g class="layer">
  <title>Layer 1</title>
  <rect fill="#ffffff" height="12" id="svg_1" rx="2" transform="matrix(1.2537 0 0 1.24937 -18.2723 -26.7009)" width="24" x="60" y="117.07"/>
  <rect fill="#ffffff" height="8" id="svg_2" rx="3" transform="matrix(1.2537 0 0 1.24937 -18.2723 -26.7009)" width="28" x="58" y="127.07"/>
  <rect fill="#ffffff" height="4" id="svg_3" transform="matrix(1.2537 0 0 1.24937 -18.2723 -26.7009)" width="16" x="64" y="122.07"/>
  <rect fill="#ff0000" fill-opacity="0.01" height="80" id="svg_4" rx="18" ry="18" stroke="#ffffff" stroke-width="8" transform="matrix(1.2537 0 0 1.24937 -18.2723 -26.7009)" width="80" x="32" y="27.07"/>
  <rect fill="#ffffff" height="10" id="svg_21" transform="matrix(1.2537 0 0 1.24937 -18.2723 -26.7009)" width="4" x="70" y="107.07"/>
  <text fill="#ffffff" font-family="Arial, sans-serif" font-size="37.61" id="svg_22" stroke="#ffffff" text-anchor="middle" transform="matrix(1.2537 0 0 1.24937 -18.2723 -26.7009)" x="74.05" xml:space="preserve" y="78.33"/>
  <use href="#svg_46" id="svg_47" transform="scale(18.6 18.6)"/>
  <g id="svg_48" transform="translate(-0.16129 0) translate(-0.16129 0) translate(-0.16129 0) translate(-4.51613 5.16129) matrix(3.768 0 0 3.768 46.7893 22.469)">
   <path d="m6.5,0l0,8l3,0l0,-8l-3,0z" fill="#ffffff" id="svg_49"/>
   <path d="m4.46,11.54c-1.95,-1.96 -1.95,-5.12 0,-7.08l-2.12,-2.12c-3.12,3.13 -3.12,8.19 0,11.32c3.13,3.12 8.19,3.12 11.32,0c3.12,-3.13 3.12,-8.19 0,-11.32l-2.12,2.12c1.95,1.96 1.95,5.12 0,7.08c-1.96,1.95 -5.12,1.95 -7.08,0z" fill="#ffffff" id="svg_50"/>
  </g>
 </g>
</svg>